<?xml version="1.0" encoding="utf-8"?>
<!-- Generator: Adobe Illustrator 18.0.0, SVG Export Plug-In . SVG Version: 6.00 Build 0)  -->
<!DOCTYPE svg PUBLIC "-//W3C//DTD SVG 1.1//EN" "http://www.w3.org/Graphics/SVG/1.1/DTD/svg11.dtd">
<svg version="1.1" id="Layer_1" xmlns="http://www.w3.org/2000/svg" xmlns:xlink="http://www.w3.org/1999/xlink" x="0px" y="0px"
	 viewBox="0 0 103 54.3" enable-background="new 0 0 103 54.3" xml:space="preserve">
<rect x="29.1" y="36.1" fill="#FFFFFF" width="4.5" height="17.9"/>
<g>
	<defs>
		<rect id="SVGID_1_" y="0" width="103" height="54.3"/>
	</defs>
	<clipPath id="SVGID_2_">
		<use xlink:href="#SVGID_1_"  overflow="visible"/>
	</clipPath>
	<path clip-path="url(#SVGID_2_)" fill="#FFFFFF" d="M70,41.2c-0.2-0.1-1.6-1-3.8-1c-2.9,0-4.9,2-4.9,4.8c0,2.7,1.9,4.8,4.9,4.8
		c2.1,0,3.6-0.8,3.8-1v4.8c-0.6,0.2-2.1,0.6-4.1,0.6c-5.1,0-9.5-3.5-9.5-9.3c0-5.3,4-9.3,9.5-9.3c2.1,0,3.7,0.5,4.1,0.6V41.2z"/>
	<path clip-path="url(#SVGID_2_)" fill="#FFFFFF" d="M22.9,41.2c-0.2-0.1-1.6-1-3.8-1c-2.9,0-4.9,2-4.9,4.8c0,2.7,1.9,4.8,4.9,4.8
		c2.1,0,3.6-0.8,3.8-1v4.8c-0.6,0.2-2.1,0.6-4.1,0.6c-5.1,0-9.5-3.5-9.5-9.3c0-5.3,4-9.3,9.5-9.3c2.1,0,3.7,0.5,4.1,0.6V41.2z"/>
	<path clip-path="url(#SVGID_2_)" fill="#FFFFFF" d="M93.7,45c0,5.1-3.9,9.3-9.5,9.3c-5.5,0-9.5-4.1-9.5-9.3c0-5.1,3.9-9.3,9.5-9.3
		C89.8,35.7,93.7,39.9,93.7,45 M84.3,40.3c-2.7,0-4.7,2.1-4.7,4.7c0,2.6,2,4.7,4.7,4.7c2.7,0,4.7-2.1,4.7-4.7
		C88.9,42.4,86.9,40.3,84.3,40.3"/>
	<path clip-path="url(#SVGID_2_)" fill="#FFFFFF" d="M50.8,40.1c-0.1,0-2-0.5-3.5-0.5c-1.8,0-2.8,0.6-2.8,1.5c0,1.1,1.3,1.5,2.1,1.7
		l1.3,0.4c2.9,0.9,4.3,2.9,4.3,5.1c0,4.5-4,6-7.4,6c-2.4,0-4.7-0.4-4.9-0.5v-4.1c0.4,0.1,2.3,0.7,4.3,0.7c2.2,0,3.3-0.7,3.3-1.7
		c0-0.9-0.9-1.4-2-1.8c-0.3-0.1-0.7-0.2-1-0.3c-2.5-0.8-4.6-2.3-4.6-5.2c0-3.3,2.5-5.6,6.7-5.6c2.2,0,4.3,0.5,4.4,0.6V40.1z"/>
	<path clip-path="url(#SVGID_2_)" fill="#FFFFFF" d="M4.5,16.8c0-1.2-1-2.2-2.2-2.2c-1.2,0-2.2,1-2.2,2.2v4.7c0,1.2,1,2.2,2.2,2.2
		c1.2,0,2.2-1,2.2-2.2V16.8z"/>
	<path clip-path="url(#SVGID_2_)" fill="#FFFFFF" d="M16.8,10.7c0-1.2-1-2.2-2.2-2.2c-1.2,0-2.2,1-2.2,2.2v10.9c0,1.2,1,2.2,2.2,2.2
		c1.2,0,2.2-1,2.2-2.2V10.7z"/>
	<path clip-path="url(#SVGID_2_)" fill="#FFFFFF" d="M29.1,2.2c0-1.2-1-2.2-2.2-2.2c-1.2,0-2.2,1-2.2,2.2V26c0,1.2,1,2.2,2.2,2.2
		c1.2,0,2.2-1,2.2-2.2V2.2z"/>
	<path clip-path="url(#SVGID_2_)" fill="#FFFFFF" d="M41.4,10.7c0-1.2-1-2.2-2.2-2.2c-1.2,0-2.2,1-2.2,2.2v10.9c0,1.2,1,2.2,2.2,2.2
		c1.2,0,2.2-1,2.2-2.2V10.7z"/>
	<path clip-path="url(#SVGID_2_)" fill="#FFFFFF" d="M53.7,16.8c0-1.2-1-2.2-2.2-2.2c-1.2,0-2.2,1-2.2,2.2v4.7c0,1.2,1,2.2,2.2,2.2
		c1.2,0,2.2-1,2.2-2.2V16.8z"/>
	<path clip-path="url(#SVGID_2_)" fill="#FFFFFF" d="M66,10.7c0-1.2-1-2.2-2.2-2.2c-1.2,0-2.2,1-2.2,2.2v10.9c0,1.2,1,2.2,2.2,2.2
		c1.2,0,2.2-1,2.2-2.2V10.7z"/>
	<path clip-path="url(#SVGID_2_)" fill="#FFFFFF" d="M78.4,2.2c0-1.2-1-2.2-2.2-2.2c-1.2,0-2.2,1-2.2,2.2V26c0,1.2,1,2.2,2.2,2.2
		c1.2,0,2.2-1,2.2-2.2V2.2z"/>
	<path clip-path="url(#SVGID_2_)" fill="#FFFFFF" d="M90.7,10.7c0-1.2-1-2.2-2.3-2.2c-1.2,0-2.2,1-2.2,2.2v10.9c0,1.2,1,2.2,2.2,2.2
		c1.3,0,2.3-1,2.3-2.2V10.7z"/>
	<path clip-path="url(#SVGID_2_)" fill="#FFFFFF" d="M103,16.8c0-1.2-1-2.2-2.2-2.2c-1.2,0-2.2,1-2.2,2.2v4.7c0,1.2,1,2.2,2.2,2.2
		c1.2,0,2.2-1,2.2-2.2V16.8z"/>
</g>
</svg>
