<?xml version="1.0" encoding="utf-8"?>
<!-- Generator: Adobe Illustrator 18.0.0, SVG Export Plug-In . SVG Version: 6.00 Build 0)  -->
<!DOCTYPE svg PUBLIC "-//W3C//DTD SVG 1.1//EN" "http://www.w3.org/Graphics/SVG/1.1/DTD/svg11.dtd">
<svg version="1.1" id="Capa_1" xmlns="http://www.w3.org/2000/svg" xmlns:xlink="http://www.w3.org/1999/xlink" x="0px" y="0px"
	 viewBox="0 0 60 60" enable-background="new 0 0 60 60" xml:space="preserve">
<g>
	<g>
		<path fill="#049FD9" d="M50,21.5c-0.1-8.7-7.2-16-15.9-16c-5.6,0-10.8,3-13.7,7.3c-1.3-0.8-2.8-1.3-4.4-1.3c-4.4,0-8,3.6-8,8
			c0,0.2,0,0.3,0,0.5c0,0.2,0,0.4,0,0.5C4,22.4,1,27,1,31.7c0,6.5,5.3,11.8,11.8,11.8h24.5c0.1,0,0.3,0,0.4,0c0.1,0,0.3,0,0.4,0H48
			c6.1,0,11-5,11-11C59,27.1,55.1,22.5,50,21.5z"/>
	</g>
</g>
<g>
	<path fill="#ABC233" stroke="#ABC233" stroke-width="2" stroke-miterlimit="10" d="M52.2,53.8l-6-6.2c1.7-1.9,2.8-4.5,2.8-7.3
		c0-6-4.8-10.8-10.8-10.8s-10.8,4.8-10.8,10.8s4.8,10.8,10.8,10.8c2.4,0,4.7-0.8,6.5-2.2l6,6.3c0.2,0.2,0.5,0.3,0.7,0.3
		c0.2,0,0.5-0.1,0.7-0.3C52.6,54.8,52.6,54.2,52.2,53.8z M29.5,40.3c0-4.8,3.9-8.8,8.8-8.8s8.8,3.9,8.8,8.8s-3.9,8.8-8.8,8.8
		S29.5,45.2,29.5,40.3z"/>
</g>
</svg>
