<?xml version="1.0" encoding="utf-8"?>
<!-- Generator: Adobe Illustrator 18.0.0, SVG Export Plug-In . SVG Version: 6.00 Build 0)  -->
<!DOCTYPE svg PUBLIC "-//W3C//DTD SVG 1.1//EN" "http://www.w3.org/Graphics/SVG/1.1/DTD/svg11.dtd">
<svg version="1.1" id="Capa_1" xmlns="http://www.w3.org/2000/svg" xmlns:xlink="http://www.w3.org/1999/xlink" x="0px" y="0px"
	 viewBox="0 0 59.9 59.9" enable-background="new 0 0 59.9 59.9" xml:space="preserve">
<g>
	<path fill="#049FD9" d="M33.8,31.9c0-2.1-1.7-3.9-3.9-3.9s-3.9,1.7-3.9,3.9s1.7,3.9,3.9,3.9S33.8,34,33.8,31.9z"/>
	<path fill="#ABC233" d="M29.9,1.9C13.4,1.9,0,15.4,0,31.9c0,10.5,5.6,20.4,14.7,25.8c0.9,0.5,2.1,0.2,2.6-0.7
		c0.5-0.9,0.2-2.1-0.7-2.6C8.8,49.7,3.9,41,3.9,31.9c0-14.4,11.7-26.1,26.1-26.1S56,17.5,56,31.9c0,9.2-4.9,17.8-12.8,22.5
		c-0.9,0.5-1.2,1.7-0.7,2.6c0.4,0.6,1,0.9,1.7,0.9c0.3,0,0.7-0.1,1-0.3c9.1-5.4,14.7-15.2,14.7-25.8C59.9,15.4,46.4,1.9,29.9,1.9z"
		/>
	<path fill="#ABC233" d="M46.3,31.9c0-9.1-7.4-16.4-16.4-16.4s-16.4,7.4-16.4,16.4c0,5.8,3.1,11.2,8.1,14.1c0.9,0.5,2.1,0.2,2.6-0.7
		c0.5-0.9,0.2-2.1-0.7-2.6c-3.8-2.3-6.2-6.4-6.2-10.8c0-6.9,5.6-12.6,12.6-12.6s12.6,5.6,12.6,12.6c0,4.4-2.4,8.5-6.2,10.8
		c-0.9,0.5-1.2,1.7-0.7,2.6c0.4,0.6,1,0.9,1.7,0.9c0.3,0,0.7-0.1,1-0.3C43.2,43,46.3,37.6,46.3,31.9z"/>
</g>
</svg>
