<?xml version="1.0" encoding="utf-8"?>
<!-- Generator: Adobe Illustrator 18.0.0, SVG Export Plug-In . SVG Version: 6.00 Build 0)  -->
<!DOCTYPE svg PUBLIC "-//W3C//DTD SVG 1.1//EN" "http://www.w3.org/Graphics/SVG/1.1/DTD/svg11.dtd">
<svg version="1.1" id="Layer_1" xmlns="http://www.w3.org/2000/svg" xmlns:xlink="http://www.w3.org/1999/xlink" x="0px" y="0px"
	 viewBox="0 0 490.1 490" enable-background="new 0 0 490.1 490" xml:space="preserve">
<g>
	<defs>
		<rect id="SVGID_1_" width="490.1" height="490"/>
	</defs>
	<clipPath id="SVGID_2_">
		<use xlink:href="#SVGID_1_"  overflow="visible"/>
	</clipPath>
	<path clip-path="url(#SVGID_2_)" fill="#ABC233" d="M84,87.5C170.8-1.3,313.6-3,402.4,83.8l-25.3,0.3c-5.5,0.1-9.8,4.5-9.8,10
		c0.1,5.4,4.5,9.8,9.9,9.8h0.1l49.2-0.6c5.5-0.1,9.8-4.5,9.8-10l-0.6-49.2c-0.1-5.5-4.5-9.9-10-9.8s-9.8,4.5-9.8,10l0.3,25.3
		c-96.6-94.4-252-92.5-346.4,4.1c-32.7,33.5-55.1,75.3-64.6,121c-9.3,44.5-6.1,90.5,9.2,133.2c1.5,4,5.3,6.6,9.3,6.6
		c1.1,0,2.2-0.2,3.3-0.6c5.1-1.8,7.8-7.5,6-12.7C3.7,239.3,23.2,149.7,84,87.5"/>
	<path clip-path="url(#SVGID_2_)" fill="#ABC233" d="M73.9,420.3C120,465.3,180.7,490,245,490h2.9c65.5-0.8,126.7-26.9,172.4-73.8
		c32.8-33.5,55.1-75.4,64.6-121.1c9.3-44.5,6.1-90.5-9.2-133.2c-1.8-5.1-7.5-7.8-12.7-6c-5.1,1.8-7.8,7.5-6,12.7
		c29.4,81.9,9.9,171.5-50.9,233.7c-42.1,43-98.3,67.1-158.5,67.8C187.5,470.8,130.7,448,87.7,406l25.3-0.3c5.5-0.1,9.8-4.5,9.8-10
		c-0.1-5.4-4.5-9.8-9.9-9.8h-0.1l-49.2,0.6c-2.6,0-5.1,1.1-7,3c-1.8,1.9-2.8,4.4-2.8,7l0.6,49.2c0.1,5.4,4.5,9.8,9.9,9.8h0.1
		c5.5-0.1,9.8-4.5,9.8-10L73.9,420.3z"/>
	<path clip-path="url(#SVGID_2_)" fill="#049FD9" d="M382,188.1c-21.9-52.7-71.5-87.7-127.9-91.1c-1-0.1-2.1-0.1-3.2-0.2h-0.4
		c-0.6,0-1.2-0.1-1.8-0.1h-0.3c-1.1,0-2.2-0.1-3.4-0.1c-19.5,0-38.5,3.8-56.6,11.3c-36.6,15.1-65.1,43.6-80.2,80.2
		C93,224.7,93,265,108.2,301.5c23,55.6,76.8,91.6,137,91.6c0.8,0,1.5,0,2.3-0.1c0.4,0,0.9,0.1,1.3,0.1c0.2,0,0.4,0,0.5-0.1
		c0.9,0,1.7-0.1,2.6-0.1h1c0.3,0,0.5,0,0.8-0.1c16.5-0.9,32.7-4.6,48.2-11c36.6-15.1,65.1-43.6,80.2-80.2
		c15.1-36.6,15.2-76.9,0-113.4C382,188.2,382,188.2,382,188.1C382,188.2,382,188.2,382,188.1 M193.4,127.4
		c-11,14.3-19.8,33-25.6,54.7h-34.7C146.6,157.9,167.6,138.8,193.4,127.4 M124.1,202h39.4c-2.3,13.5-3.5,27.9-3.5,43
		c0,14.9,1.3,29.4,3.8,43h-39.7C114.1,260,114.1,229.9,124.1,202 M133.1,307.7h35.3c6.2,22.1,15.6,41.2,27.1,55.8
		C169.3,352.5,147.2,333.1,133.1,307.7 M238.8,371.9c-20.7-6.1-39.1-30.9-49.6-64.2h49.6V371.9z M238.8,287.9h-54.7
		c-2.8-13.6-4.3-28.1-4.3-43c0-15.1,1.4-29.6,3.8-43h55.2V287.9z M238.8,182.2h-50.5c10.1-34.4,28.5-58.7,50.5-64.3V182.2z
		 M357.1,182.1h-27.5c-5.1-19.1-12.4-35.8-21.6-49.2C328.3,144.3,345.4,161.2,357.1,182.1 M258.6,117.8c22,5.7,40.3,30,50.5,64.3
		h-50.5V117.8z M258.6,202h55.2c2.5,13.4,3.8,27.8,3.8,43c0,14.9-1.5,29.4-4.3,43h-54.7V202z M258.6,371.9v-64.2h49.6
		C297.7,341,279.3,365.8,258.6,371.9 M306,358c9.7-13.7,17.6-30.9,23.1-50.3h28C345.2,329.1,327.6,346.4,306,358 M366.1,287.9h-32.5
		c2.5-13.6,3.8-28,3.8-43c0-15.1-1.2-29.5-3.5-43h32.2C376.1,229.9,376.1,260,366.1,287.9"/>
</g>
</svg>
